<svg width="50" height="50" viewBox="0 0 50 50" fill="none" xmlns="http://www.w3.org/2000/svg">
<path d="M12.8516 4.74609C3.52539 6.69922 3.37891 6.72852 3.08594 7.03125L2.7832 7.32422V26.9531V46.582L3.10547 46.8945L3.41797 47.2168H25H46.582L46.8945 46.8945L47.2168 46.582V32.8223V19.0625L46.9727 18.7988C46.6797 18.4863 40.2441 15.2344 39.9219 15.2344C39.7949 15.2344 36.7969 15.7812 33.2617 16.4453C26.8652 17.6562 26.8262 17.666 26.5234 17.959L26.2207 18.2617L26.1914 31.5918L26.1719 44.9219H25H23.8281V25.3027V5.68359L28.1055 7.51953L32.373 9.3457L32.4219 11.5527L32.4707 13.7695L32.793 14.082C33.0664 14.3555 33.1738 14.4043 33.5938 14.4043C34.0137 14.4043 34.1211 14.3555 34.3945 14.082L34.7168 13.7695V10.9375V8.10547L34.4238 7.82227C34.043 7.45117 23.0469 2.72461 22.6074 2.74414C22.4512 2.75391 18.0566 3.65234 12.8516 4.74609ZM21.4844 25.1465V44.9219H13.2812H5.07812L5.09766 26.8359L5.12695 8.75977L7.86133 8.19336C9.36523 7.88086 12.9883 7.11914 15.918 6.50391C18.8477 5.88867 21.2988 5.38086 21.3672 5.38086C21.4551 5.37109 21.4844 9.38477 21.4844 25.1465ZM38.6719 31.3965V44.9219H33.5938H28.5156V32.3242C28.5156 25.3906 28.5254 19.7266 28.5449 19.7266C28.5547 19.7168 30.7422 19.3066 33.3984 18.7988C36.0547 18.3008 38.3301 17.8809 38.457 17.8809L38.6719 17.8711V31.3965ZM43.0176 19.3066L44.9219 20.2637V32.5879V44.9219H42.9688H41.0156V31.6406C41.0156 24.3359 41.0352 18.3594 41.0645 18.3594C41.0938 18.3594 41.9727 18.7891 43.0176 19.3066Z" fill="white"/>
<path d="M17.5293 9.85352C17.4219 9.90234 17.2266 10.0586 17.0898 10.2051C16.8457 10.459 16.8457 10.4883 16.8457 12.1191V13.7695L17.168 14.082C17.4414 14.3555 17.5488 14.4043 17.9688 14.4043C18.3887 14.4043 18.4961 14.3555 18.7695 14.082L19.0918 13.7695V12.1094V10.4492L18.7891 10.1465C18.4668 9.82422 17.8906 9.69727 17.5293 9.85352Z" fill="white"/>
<path d="M12.4512 10.6348C12.3438 10.6836 12.1484 10.8398 12.0117 10.9863C11.7676 11.2402 11.7676 11.2695 11.7676 12.9004V14.5508L12.0898 14.8633C12.3633 15.1367 12.4707 15.1855 12.8906 15.1855C13.3105 15.1855 13.418 15.1367 13.6914 14.8633L14.0137 14.5508V12.8906V11.2305L13.7109 10.9277C13.3887 10.6055 12.8125 10.4785 12.4512 10.6348Z" fill="white"/>
<path d="M7.37305 11.416C7.26562 11.4648 7.07031 11.6211 6.93359 11.7676C6.68945 12.0215 6.68945 12.0508 6.68945 13.6816V15.332L7.01172 15.6445C7.28516 15.918 7.39258 15.9668 7.8125 15.9668C8.23242 15.9668 8.33984 15.918 8.61328 15.6445L8.93555 15.332V13.6719V12.0117L8.63281 11.709C8.31055 11.3867 7.73438 11.2598 7.37305 11.416Z" fill="white"/>
<path d="M17.3633 18.0273C16.875 18.2812 16.7969 18.5937 16.7969 20.1855C16.7969 21.8457 16.9043 22.1582 17.5586 22.4316C18.0469 22.6367 18.6035 22.4511 18.916 21.9824C19.1211 21.6699 19.1406 21.5527 19.1406 20.1953C19.1406 19.082 19.1016 18.6718 18.9941 18.457C18.7207 17.9199 17.9297 17.7148 17.3633 18.0273Z" fill="white"/>
<path d="M12.4512 18.4473C12.3438 18.4961 12.1484 18.6523 12.0117 18.7988C11.7676 19.0527 11.7676 19.082 11.7676 20.7129V22.3633L12.0898 22.6758C12.3633 22.9492 12.4707 22.998 12.8906 22.998C13.3105 22.998 13.418 22.9492 13.6914 22.6758L14.0137 22.3633V20.7031V19.043L13.7109 18.7402C13.3887 18.418 12.8125 18.291 12.4512 18.4473Z" fill="white"/>
<path d="M7.35352 18.9941C6.74805 19.2578 6.64062 19.5898 6.64062 21.2207C6.64062 22.8222 6.71875 23.125 7.22656 23.3886C7.8125 23.6914 8.56445 23.4863 8.83789 22.9492C8.94531 22.7343 8.98438 22.3242 8.98438 21.2207C8.98438 19.58 8.87695 19.248 8.25195 18.9843C7.8418 18.8183 7.75391 18.8183 7.35352 18.9941Z" fill="white"/>
<path d="M17.5098 26.0254C16.9043 26.289 16.7969 26.6211 16.7969 28.2519C16.7969 29.8535 16.875 30.1562 17.3828 30.4199C17.9688 30.7226 18.7207 30.5175 18.9941 29.9804C19.1016 29.7656 19.1406 29.3554 19.1406 28.2519C19.1406 26.6113 19.0332 26.2793 18.4082 26.0156C17.998 25.8496 17.9102 25.8496 17.5098 26.0254Z" fill="white"/>
<path d="M12.4512 26.2598C12.3438 26.3086 12.1484 26.4648 12.0117 26.6113C11.7676 26.8652 11.7676 26.8945 11.7676 28.5254V30.1758L12.0898 30.4883C12.3633 30.7617 12.4707 30.8105 12.8906 30.8105C13.3105 30.8105 13.418 30.7617 13.6914 30.4883L14.0137 30.1758V28.5156V26.8555L13.7109 26.5527C13.3887 26.2305 12.8125 26.1035 12.4512 26.2598Z" fill="white"/>
<path d="M7.20703 26.6211C6.71875 26.875 6.64062 27.1875 6.64062 28.7793C6.64062 30.4394 6.74805 30.7519 7.40234 31.0253C7.89062 31.2304 8.44727 31.0449 8.75977 30.5761C8.96484 30.2636 8.98438 30.1464 8.98438 28.789C8.98438 27.6757 8.94531 27.2656 8.83789 27.0507C8.56445 26.5136 7.77344 26.3086 7.20703 26.6211Z" fill="white"/>
<path d="M7.37305 34.0723C7.26562 34.1211 7.07031 34.2773 6.93359 34.4238C6.68945 34.6777 6.68945 34.707 6.68945 36.3379V37.9883L7.01172 38.3008C7.28516 38.5742 7.39258 38.623 7.8125 38.623C8.23242 38.623 8.33984 38.5742 8.61328 38.3008L8.93555 37.9883V36.3281V34.668L8.63281 34.3652C8.31055 34.043 7.73438 33.916 7.37305 34.0723Z" fill="white"/>
<path d="M12.4512 34.0723C12.3438 34.1211 12.1484 34.2773 12.0117 34.4238C11.7676 34.6777 11.7676 34.707 11.7676 36.3379V37.9883L12.0898 38.3008C12.3633 38.5742 12.4707 38.623 12.8906 38.623C13.3105 38.623 13.418 38.5742 13.6914 38.3008L14.0137 37.9883V36.3281V34.668L13.7109 34.3652C13.3887 34.043 12.8125 33.916 12.4512 34.0723Z" fill="white"/>
<path d="M17.5293 34.0723C17.4219 34.1211 17.2266 34.2773 17.0898 34.4238C16.8457 34.6777 16.8457 34.707 16.8457 36.3379V37.9883L17.168 38.3008C17.4414 38.5742 17.5488 38.623 17.9688 38.623C18.3887 38.623 18.4961 38.5742 18.7695 38.3008L19.0918 37.9883V36.3281V34.668L18.7891 34.3652C18.4668 34.043 17.8906 33.916 17.5293 34.0723Z" fill="white"/>
<path d="M34.7168 20.791C34.6094 20.8398 34.4141 20.9961 34.2773 21.1426C34.0332 21.3965 34.0332 21.4258 34.0332 23.0566V24.707L34.3555 25.0195C34.6289 25.293 34.7363 25.3418 35.1562 25.3418C35.5762 25.3418 35.6836 25.293 35.957 25.0195L36.2793 24.707V23.0469V21.3867L35.9766 21.084C35.6543 20.7617 35.0781 20.6348 34.7168 20.791Z" fill="white"/>
<path d="M30.2246 21.5723C30.1172 21.6211 29.9219 21.7773 29.7852 21.9238C29.541 22.1777 29.541 22.207 29.541 23.8379V25.4883L29.8633 25.8008C30.1367 26.0742 30.2441 26.123 30.6641 26.123C31.084 26.123 31.1914 26.0742 31.4648 25.8008L31.7871 25.4883V23.8281V22.168L31.4844 21.8652C31.1621 21.543 30.5859 21.416 30.2246 21.5723Z" fill="white"/>
<path d="M34.7168 28.2129C34.6094 28.2617 34.4141 28.418 34.2773 28.5645C34.0332 28.8184 34.0332 28.8477 34.0332 30.4785V32.1289L34.3555 32.4414C34.6289 32.7148 34.7363 32.7637 35.1562 32.7637C35.5762 32.7637 35.6836 32.7148 35.957 32.4414L36.2793 32.1289V30.4688V28.8086L35.9766 28.5059C35.6543 28.1836 35.0781 28.0566 34.7168 28.2129Z" fill="white"/>
<path d="M30.2246 28.6035C30.1172 28.6523 29.9219 28.8086 29.7852 28.9551C29.541 29.209 29.541 29.2383 29.541 30.8691V32.5195L29.8633 32.832C30.1367 33.1055 30.2441 33.1543 30.6641 33.1543C31.084 33.1543 31.1914 33.1055 31.4648 32.832L31.7871 32.5195V30.8594V29.1992L31.4844 28.8965C31.1621 28.5742 30.5859 28.4473 30.2246 28.6035Z" fill="white"/>
<path d="M30.2246 35.6348C30.1172 35.6836 29.9219 35.8398 29.7852 35.9863C29.541 36.2402 29.541 36.2695 29.541 37.9004V39.5508L29.8633 39.8633C30.1367 40.1367 30.2441 40.1855 30.6641 40.1855C31.084 40.1855 31.1914 40.1367 31.4648 39.8633L31.7871 39.5508V37.8906V36.2305L31.4844 35.9277C31.1621 35.6055 30.5859 35.4785 30.2246 35.6348Z" fill="white"/>
<path d="M34.7168 35.6348C34.6094 35.6836 34.4141 35.8398 34.2773 35.9863C34.0332 36.2402 34.0332 36.2695 34.0332 37.9004V39.5508L34.3555 39.8633C34.6289 40.1367 34.7363 40.1855 35.1562 40.1855C35.5762 40.1855 35.6836 40.1367 35.957 39.8633L36.2793 39.5508V37.8906V36.2305L35.9766 35.9277C35.6543 35.6055 35.0781 35.4785 34.7168 35.6348Z" fill="white"/>
</svg>
