<svg width="60" height="60" viewBox="0 0 60 60" fill="none" xmlns="http://www.w3.org/2000/svg">
<path d="M11.1445 4.93359C10.6289 5.14453 10.1836 5.53125 9.92578 6.01172C9.67969 6.49219 9.66797 6.62109 9.60937 11.3555L9.55078 16.1953L5.74219 18.2461C3.64453 19.3711 1.75781 20.4258 1.54687 20.5898C1.00781 21 0.410155 21.9609 0.164061 22.7812C-0.726564 25.9336 2.41406 28.9336 5.50781 27.8906C5.92969 27.75 6.43359 27.5391 6.63281 27.4102C6.83203 27.293 7.03125 27.1875 7.0664 27.1875C7.11328 27.1875 7.16015 33.0234 7.17187 40.1602L7.20703 53.1445L7.46484 53.625C7.79297 54.2461 8.53125 54.8789 9.1289 55.0547C9.77344 55.2539 50.2266 55.2539 50.8711 55.0547C51.4687 54.8789 52.207 54.2461 52.5352 53.625L52.793 53.1445L52.8281 40.1602C52.8398 33.0234 52.8867 27.1875 52.9336 27.1875C52.9687 27.1875 53.2266 27.3164 53.5078 27.4805C55.7461 28.793 58.5351 27.9141 59.625 25.5703C59.8945 24.9961 59.9414 24.75 59.9414 23.8477C59.9297 22.9219 59.8945 22.6992 59.5898 22.0898C58.9219 20.6953 59.3086 20.9414 45.2344 13.3945C38.1094 9.58594 32.0508 6.33984 31.7578 6.1875C31.3008 5.95312 31.0664 5.91797 30 5.91797C28.5703 5.91797 29.3789 5.56641 23.1328 8.91797C20.8711 10.1367 18.9258 11.1562 18.8203 11.2031C18.6562 11.2734 18.6328 11.0742 18.6328 9.12891C18.6328 6.80859 18.5391 6.25781 18.082 5.63672C17.5078 4.88672 17.1445 4.80469 14.1211 4.81641C12.6445 4.81641 11.2969 4.875 11.1445 4.93359ZM16.6289 6.84375C16.7227 6.94922 16.7578 7.80469 16.7344 9.67969L16.6992 12.3633L14.1797 13.7344C12.7969 14.4844 11.625 15.1055 11.5781 15.1055C11.4375 15.1172 11.4609 7.17188 11.6016 6.90234C11.7187 6.69141 11.8711 6.67969 14.1094 6.67969C15.9961 6.67969 16.5234 6.71484 16.6289 6.84375ZM30.6328 7.79297C31.043 7.88672 56.625 21.5859 57.1875 22.0195C57.7148 22.4297 58.125 23.2383 58.125 23.8477C58.1133 25.2188 56.8008 26.3906 55.4648 26.2031C55.1016 26.1562 53.3555 25.2773 49.3594 23.1328C32.9766 14.332 30.2461 12.8906 30 12.8906C29.8594 12.8906 24.1758 15.8672 17.3789 19.5234C3.64453 26.8828 4.40625 26.543 3.22265 25.9688C1.75781 25.2422 1.42969 23.2852 2.61328 22.1836C3.07031 21.7617 28.9102 7.88672 29.5195 7.74609C29.7539 7.6875 30.0234 7.66406 30.1172 7.67578C30.2109 7.69922 30.4453 7.74609 30.6328 7.79297ZM37.6055 18.9492C41.7656 21.1758 46.4648 23.707 48.0469 24.5508L50.918 26.0977L50.9531 39.2109C50.9648 46.4297 50.9531 52.4414 50.918 52.5938C50.8828 52.7344 50.7539 52.957 50.625 53.0859C50.3906 53.3203 50.2031 53.3203 41.8477 53.3203H33.293L33.2578 50.2969L33.2227 47.2617L32.8945 46.7695C32.5312 46.2305 32.0391 45.8789 31.3711 45.6914L30.9375 45.5742L30.9609 42.7383L30.9961 39.9023L37.3359 39.8438L43.6641 39.7852L44.1562 39.457C45.0703 38.8594 45.1172 38.6602 45.1172 35.0391C45.1172 31.5938 45.1055 31.5234 44.4492 30.9258C43.8984 30.4102 43.6055 30.3164 42.1992 30.2578C41.3906 30.2227 40.8047 30.1523 40.7578 30.0703C40.7109 30 40.6641 29.8008 40.6641 29.6367C40.6641 28.875 39.9375 27.832 39.0937 27.3867L38.6133 27.1289H30H21.3867L20.9062 27.3867C20.3437 27.6914 19.7344 28.3477 19.4766 28.9336C19.1953 29.5547 19.207 32.918 19.4883 33.5391C19.7695 34.1484 20.3437 34.7695 20.9062 35.0742L21.3867 35.332H30H38.6133L39.0937 35.0742C40.0078 34.582 40.5352 33.7734 40.7227 32.543L40.793 32.1094H41.8711C42.4687 32.1094 43.0195 32.1562 43.1016 32.2031C43.207 32.2852 43.2422 32.9414 43.2187 35.1094L43.1836 37.9102L36.8437 37.9688L30.5156 38.0273L30.0352 38.3438C29.7539 38.5312 29.4609 38.8594 29.3086 39.1641C29.0742 39.6562 29.0625 39.8672 29.0625 42.6328V45.5859L28.5117 45.7266C27.832 45.8906 27.0234 46.6523 26.8477 47.2969C26.7773 47.5664 26.7187 48.9258 26.7187 50.5312V53.3203H18.1641C9.79687 53.3203 9.60937 53.3203 9.375 53.0859C9.24609 52.957 9.11719 52.7344 9.08203 52.5938C9.04687 52.4414 9.03515 46.418 9.04687 39.2109L9.08203 26.0977L19.5117 20.4961C25.2539 17.4141 29.9648 14.8945 29.9883 14.8828C30.0117 14.8828 33.4336 16.7109 37.6055 18.9492ZM38.4609 29.2852L38.8477 29.625V31.2305V32.8359L38.4609 33.1758L38.0859 33.5156H30H21.9141L21.5391 33.1758L21.1523 32.8359V31.3125C21.1523 29.707 21.2578 29.3086 21.7266 29.0859C21.8906 29.0039 24.7383 28.957 30.0234 28.957L38.0859 28.9453L38.4609 29.2852ZM31.1953 47.6602C31.3828 47.8359 31.4062 48.082 31.4062 50.5898V53.3203H30H28.5937V50.6016C28.5937 47.3086 28.5234 47.4609 29.9766 47.4609C30.7383 47.4609 31.0312 47.5078 31.1953 47.6602Z" fill="white"/>
</svg>
