<svg width="47" height="47" viewBox="0 0 47 47" fill="none" xmlns="http://www.w3.org/2000/svg">
<g clip-path="url(#clip0_5_236)">
<path d="M18.5981 0.211132C18.084 0.725193 18.442 1.46875 19.2039 1.46875C20.6176 1.46875 22.2516 2.46934 22.94 3.75449C23.399 4.62656 23.5 5.17734 23.5 6.93066C23.5 8.03223 23.5367 8.53711 23.6102 8.61055C23.8029 8.80332 24.2986 8.72988 24.932 8.39941C25.6572 8.02305 25.9051 8.00469 26.208 8.30762C26.5109 8.60137 26.5109 9.02363 26.208 9.32656C25.7307 9.80391 24.3813 10.2812 23.5 10.2812C22.6188 10.2812 21.2693 9.80391 20.792 9.32656C20.4891 9.02363 20.4891 8.60137 20.8012 8.29844C20.9848 8.10566 21.0949 8.06894 21.3244 8.10566C21.4897 8.1332 21.7008 8.16992 21.8018 8.18828C21.9762 8.21582 21.9854 8.16074 22.0129 6.84805C22.0404 5.09472 22.0496 5.09472 20.9297 5.18652C19.8648 5.26914 18.3961 5.56289 17.3496 5.89336C16.1654 6.26055 14.0908 7.29785 13.0352 8.05058C11.9152 8.84922 10.2262 10.5475 9.43672 11.6582C7.96797 13.7328 7.00411 16.2756 6.70118 18.8643C6.56348 20.1311 6.58184 20.7828 6.77461 21.0215C7.02247 21.3336 7.85782 21.4896 9.54688 21.5447C10.8137 21.5814 11.2451 21.5631 12.1723 21.407C13.9256 21.1041 15.89 20.4064 17.3496 19.5619L17.983 19.2039L18.543 19.8557C18.8551 20.2229 19.4518 20.8195 19.8557 21.1959C21.0307 22.2424 23.0043 23.5 23.5 23.5C23.9865 23.5 25.951 22.2607 27.1443 21.1867C27.5574 20.8195 28.1449 20.2229 28.457 19.8557L29.0262 19.1947L29.5035 19.4701C30.9723 20.3422 33.0561 21.1041 34.8002 21.3979C35.7641 21.5631 36.1772 21.5814 37.4531 21.5447C39.1605 21.4896 39.9684 21.3336 40.2438 21.0031C40.3998 20.8104 40.409 20.691 40.3539 19.7363C40.0602 14.2469 36.9391 9.42754 32.0371 6.89394C30.1461 5.9209 28.3469 5.40684 26.1438 5.21406C24.932 5.1039 24.877 5.09472 24.877 4.90195C24.877 4.57148 24.4547 3.41484 24.1242 2.86406C23.959 2.57949 23.5551 2.07461 23.2246 1.74414C22.1873 0.716015 20.9572 0.137693 19.5344 0.0275383C18.8734 -0.0275402 18.8275 -0.0183601 18.5981 0.211132Z" fill="#FF7B7B"/>
<path d="M16.4776 21.6271C14.2561 22.6094 12.7322 22.949 10.2537 23.0133L8.43615 23.0684L8.30764 23.3162C8.2342 23.4539 8.08732 23.9955 7.97717 24.5187C7.70178 25.7855 7.68342 28.3926 7.93127 29.7879C8.11486 30.7977 8.17912 30.9812 8.43615 31.1189C8.85842 31.3393 10.4557 31.5137 12.0713 31.5137C14.2744 31.5137 15.633 31.2383 17.4139 30.4213C19.3324 29.5492 21.0949 27.7867 21.9945 25.8314C22.4535 24.84 22.426 24.7482 21.4529 24.1607C20.3238 23.4906 19.3783 22.7746 18.4971 21.9301C18.0748 21.517 17.6709 21.2049 17.5699 21.2141C17.4781 21.2141 16.9824 21.3977 16.4776 21.6271Z" fill="#FF7B7B"/>
<path d="M28.6866 21.7651C27.9155 22.5454 26.869 23.3532 25.7215 24.06C24.5741 24.7668 24.5465 24.8311 24.9504 25.7307C25.3635 26.6303 25.9785 27.5391 26.7221 28.3194C28.2826 29.9534 30.0268 30.8713 32.542 31.367C34.0842 31.6608 37.8203 31.5139 38.5639 31.1192C38.8209 30.9815 38.8852 30.7979 39.0688 29.7881C39.3166 28.3928 39.2983 25.795 39.0229 24.5098C38.9127 23.9774 38.7659 23.445 38.7108 23.3165L38.6006 23.087L36.8106 23.0319C34.3137 22.9493 32.8633 22.6372 30.5776 21.6549C30.0084 21.4071 29.4668 21.2051 29.3842 21.2051C29.3016 21.2051 28.9895 21.453 28.6866 21.7651Z" fill="#FF7B7B"/>
<path d="M23.2613 26.7863C23.2062 26.823 22.9859 27.1352 22.7748 27.484C21.9486 28.8518 20.7461 30.1094 19.4701 30.9355C18.5889 31.5047 18.4512 31.6332 18.4512 31.8535C18.4512 32.1289 19.718 33.7445 20.5992 34.5891C21.6457 35.5896 23.1787 36.7188 23.5 36.7188C24.1885 36.7188 27.0801 34.1393 28.1541 32.5787C28.7049 31.7617 28.6773 31.6699 27.6768 31.0365C26.309 30.1645 25.0789 28.8977 24.2252 27.484C23.8213 26.8139 23.7203 26.7129 23.5 26.7129C23.4266 26.7129 23.3164 26.7496 23.2613 26.7863Z" fill="#FF7B7B"/>
<path d="M16.0645 32.4962C15.2108 32.7716 13.8797 32.9643 12.4109 33.0194C10.676 33.0837 10.7311 33.0378 10.8412 34.378C11.0248 36.5169 11.851 38.6741 13.3289 40.868C13.9899 41.8503 14.0908 41.9237 14.7701 41.7677C16.9916 41.272 19.5344 39.9684 21.0582 38.5456C21.9486 37.7102 21.9578 37.6276 21.1408 36.985C19.5711 35.7641 18.442 34.58 17.4506 33.102C17.0467 32.5054 16.8264 32.2942 16.6336 32.3218C16.5969 32.3309 16.3399 32.4044 16.0645 32.4962Z" fill="#FF7B7B"/>
<path d="M30.0818 32.4227C29.9992 32.4869 29.733 32.8357 29.4943 33.2029C28.5947 34.5523 27.1902 36.0119 25.8041 37.0492C25.0789 37.5908 25.0881 37.7285 25.8775 38.4813C26.7312 39.2982 28.1357 40.2162 29.375 40.767C30.3572 41.2076 32.34 41.8594 32.698 41.8594C32.9643 41.8594 33.4049 41.3637 34.0016 40.3998C35.2775 38.3252 35.9385 36.526 36.168 34.4238C36.3148 33.0561 36.3607 33.0928 34.5891 33.0193C33.1019 32.9643 31.9269 32.7898 30.9172 32.4961C30.2012 32.2758 30.2746 32.285 30.0818 32.4227Z" fill="#FF7B7B"/>
<path d="M22.3985 39.2156C21.251 40.3172 19.9934 41.2627 19.0295 41.7492C18.3961 42.0797 18.4145 42.2816 19.1764 43.2822C20.333 44.8061 22.885 47 23.5 47C24.0875 47 26.5569 44.907 27.6676 43.475C28.659 42.199 28.659 42.1348 27.6951 41.6023C26.8506 41.1342 25.5838 40.1611 24.5282 39.1514C23.959 38.6098 23.6377 38.3711 23.4909 38.3711C23.344 38.3803 22.986 38.6557 22.3985 39.2156Z" fill="#FF7B7B"/>
</g>
<defs>
<clipPath id="clip0_5_236">
<rect width="47" height="47" fill="white"/>
</clipPath>
</defs>
</svg>
