<svg width="49" height="49" viewBox="0 0 49 49" fill="none" xmlns="http://www.w3.org/2000/svg">
<path d="M12.7572 4.10561C11.9533 4.31616 11.2068 5.01479 10.9293 5.82827C10.8623 6.01011 10.8145 6.46948 10.8145 6.85229V7.54136L8.40274 7.57964L5.98145 7.60835L5.35938 7.90503C4.57462 8.28784 4.05782 8.73765 3.66544 9.38843C3.02423 10.4603 3.06251 9.46499 3.06251 26.2705C3.06251 36.3384 3.10079 41.6308 3.16778 41.9179C3.50274 43.363 4.72774 44.5593 6.20157 44.8751C6.91934 45.0283 42.0711 45.0283 42.7984 44.8751C44.2818 44.5593 45.4973 43.3726 45.8322 41.9179C45.8992 41.6308 45.9375 36.3384 45.9375 26.2705C45.9375 9.46499 45.9758 10.4603 45.3346 9.38843C44.9422 8.73765 44.4254 8.28784 43.6406 7.90503L43.0186 7.60835L40.6068 7.57964L38.1856 7.54136V6.90015C38.1856 5.15835 37.2285 4.10561 35.6494 4.10561C34.0703 4.10561 33.1133 5.15835 33.1133 6.90972V7.5605H30.1082H27.1127L27.0553 6.86186C26.9883 5.88569 26.8256 5.41675 26.3949 4.93823C25.8877 4.35444 25.3326 4.11518 24.5 4.11518C23.6674 4.11518 23.1315 4.34487 22.5955 4.92866C22.1649 5.39761 22.0309 5.78042 21.9447 6.81401L21.8873 7.5605H18.8918H15.8867L15.8772 6.81401C15.8676 5.9814 15.7719 5.64643 15.3508 5.05308C14.834 4.31616 13.6377 3.8855 12.7572 4.10561ZM13.8483 5.74214C14.0109 5.83784 14.2024 6.01011 14.2598 6.12495C14.3268 6.25893 14.3555 7.02456 14.3363 8.47925L14.3076 10.6421L14.0397 10.8718C13.6664 11.1876 13.0348 11.1876 12.6615 10.8718L12.3936 10.6421L12.3649 8.54624C12.3457 7.27339 12.3744 6.35464 12.4318 6.19194C12.5467 5.90483 13.0539 5.55073 13.3506 5.55073C13.4559 5.55073 13.676 5.63686 13.8483 5.74214ZM24.9307 5.69429C25.4666 5.95268 25.5049 6.12495 25.5049 8.4314V10.5273L25.1986 10.824C24.7775 11.2546 24.2225 11.2546 23.8014 10.824L23.4951 10.5273V8.4314C23.4951 6.13452 23.5334 5.96226 24.0598 5.70386C24.433 5.51245 24.5383 5.51245 24.9307 5.69429ZM36.2524 5.79956C36.3768 5.87612 36.5108 6.04839 36.5586 6.18237C36.616 6.31636 36.6543 7.31167 36.6543 8.40268C36.6543 10.2019 36.6352 10.4125 36.4629 10.69C36.1471 11.2164 35.3527 11.2738 34.8838 10.8144C34.702 10.6326 34.6924 10.4794 34.6637 8.46011C34.635 6.05796 34.6541 5.95268 35.2475 5.68472C35.5824 5.54116 35.9078 5.57944 36.2524 5.79956ZM10.8336 9.97222C10.8815 10.9675 11.0537 11.4269 11.5992 11.9628C12.5275 12.9007 14.1736 12.8912 15.1115 11.9533C15.657 11.4173 15.8867 10.7953 15.8867 9.87651V9.09175H18.8918H21.8873L21.9352 9.83823C22.0117 10.824 22.1649 11.3121 22.5764 11.781C23.8014 13.2166 26.3566 12.7476 26.8926 10.9867C26.95 10.757 27.0361 10.2402 27.0649 9.83823L27.1127 9.09175H30.1082H33.1133V9.79038C33.1133 11.0537 33.4865 11.8193 34.3383 12.3169C34.7402 12.5562 34.8838 12.5849 35.6494 12.5849C36.415 12.5849 36.5586 12.5562 36.9606 12.3169C37.4678 12.0203 37.9176 11.4365 38.0803 10.8623C38.1377 10.6517 38.1856 10.1636 38.1856 9.78081V9.09175H40.3676C42.3486 9.09175 42.5783 9.11089 42.9707 9.29272C43.4971 9.53198 43.8799 9.88608 44.1479 10.3837C44.3488 10.7378 44.3584 10.9197 44.3871 13.1783L44.4158 15.5996H24.5H4.58419L4.6129 13.1783C4.64161 10.9197 4.65118 10.7378 4.85216 10.3837C5.12013 9.88608 5.50294 9.53198 6.02931 9.29272C6.42169 9.11089 6.65138 9.09175 8.62286 9.09175H10.7953L10.8336 9.97222ZM44.4063 29.266C44.4063 42.9228 44.4541 41.9658 43.6789 42.741C42.9229 43.5066 44.4445 43.4492 24.5 43.4492C4.55548 43.4492 6.07716 43.5066 5.3211 42.741C4.54591 41.9658 4.59376 42.9228 4.59376 29.266V17.1308H24.5H44.4063V29.266Z" fill="white"/>
<path d="M7.98164 20.1359C7.81895 20.2124 7.65625 20.3368 7.61797 20.4325C7.58926 20.5187 7.56055 21.6001 7.56055 22.8347C7.56055 24.921 7.57012 25.0837 7.74238 25.256C8.01992 25.5335 8.35488 25.5622 10.8336 25.5335C13.0539 25.5048 13.1113 25.4952 13.3219 25.2847C13.542 25.0741 13.542 25.0359 13.542 22.7773C13.542 20.5187 13.542 20.4804 13.3219 20.2699C13.1113 20.0497 13.0635 20.0497 10.69 20.0306C8.81426 20.0115 8.21133 20.0306 7.98164 20.1359ZM12.0107 22.7773V23.9736L10.5561 24.0023L9.0918 24.031V22.7773V21.5236L10.5561 21.5523L12.0107 21.581V22.7773Z" fill="white"/>
<path d="M17.418 20.0689C17.3414 20.0977 17.1787 20.2125 17.0639 20.3178C16.8438 20.5092 16.8438 20.5475 16.8438 22.7773V25.0455L17.0926 25.2752L17.3414 25.5049H19.8775H22.4137L22.6434 25.2369C22.873 24.9689 22.873 24.9594 22.873 22.7773C22.873 20.6049 22.873 20.5857 22.6434 20.3178L22.4137 20.0498L19.9828 20.0307C18.6525 20.0211 17.4945 20.0402 17.418 20.0689ZM21.3418 22.7773V24.0215H19.8584H18.375V22.7773V21.5332H19.8584H21.3418V22.7773Z" fill="white"/>
<path d="M26.6438 20.0977C26.1557 20.2986 26.127 20.4613 26.127 22.7965C26.127 24.9498 26.127 24.9689 26.3566 25.2369L26.5863 25.5049H29.1416H31.6969L31.9266 25.2369C32.1563 24.9689 32.1563 24.9594 32.1563 22.7773C32.1563 20.6049 32.1563 20.5857 31.9266 20.3178L31.6969 20.0498L29.266 20.0307C27.9357 20.0211 26.749 20.0498 26.6438 20.0977ZM30.625 22.7773V24.0215H29.1416H27.6582V22.7773V21.5332H29.1416H30.625V22.7773Z" fill="white"/>
<path d="M35.8887 20.1263C35.4389 20.356 35.4102 20.557 35.4293 22.8921C35.458 25.0167 35.4676 25.0741 35.6781 25.2847C35.8887 25.4952 35.9461 25.5048 38.1664 25.5335C40.6451 25.5622 40.9801 25.5335 41.2576 25.256C41.4299 25.0837 41.4395 24.921 41.4395 22.8156C41.4395 21.5331 41.4012 20.49 41.3438 20.3847C41.1715 20.0593 40.7217 20.0019 38.3865 20.0019C36.7691 20.0019 36.0609 20.0402 35.8887 20.1263ZM39.9082 22.7773V24.031L38.4535 24.0023L36.9893 23.9736L36.9605 22.8825C36.951 22.2796 36.9605 21.7245 36.9797 21.6575C37.018 21.5618 37.3721 21.5331 38.4727 21.5331H39.9082V22.7773Z" fill="white"/>
<path d="M7.98164 27.9835C7.81895 28.0601 7.65625 28.1845 7.61797 28.2802C7.58926 28.3663 7.56055 29.4478 7.56055 30.6823C7.56055 32.7687 7.57012 32.9313 7.74238 33.1036C8.02949 33.3907 8.36445 33.4194 10.8336 33.3812C13.0539 33.3524 13.1113 33.3429 13.3219 33.1323C13.542 32.9218 13.542 32.8835 13.542 30.6249C13.542 28.3663 13.542 28.328 13.3219 28.1175C13.1113 27.8974 13.0635 27.8974 10.69 27.8782C8.81426 27.8591 8.21133 27.8782 7.98164 27.9835ZM12.0107 30.6249V31.8212L10.5561 31.8499L9.0918 31.8786V30.6249V29.3712L10.5561 29.3999L12.0107 29.4286V30.6249Z" fill="white"/>
<path d="M17.418 27.9166C17.3414 27.9453 17.1787 28.0602 17.0639 28.1654C16.8438 28.3568 16.8438 28.4047 16.8438 30.5867C16.8438 32.807 16.8438 32.8166 17.0734 33.0846L17.3031 33.3525H19.8584H22.4137L22.6434 33.0846C22.873 32.8166 22.873 32.807 22.873 30.625C22.873 28.4525 22.873 28.4334 22.6434 28.1654L22.4137 27.8975L19.9828 27.8783C18.6525 27.8688 17.4945 27.8879 17.418 27.9166ZM21.3418 30.625V31.8691H19.8584H18.375V30.625V29.3809H19.8584H21.3418V30.625Z" fill="white"/>
<path d="M26.6438 27.9453C26.1557 28.1463 26.127 28.309 26.127 30.6441C26.127 32.7975 26.127 32.8166 26.3566 33.0846L26.5863 33.3525H29.1416H31.6969L31.9266 33.0846C32.1563 32.8166 32.1563 32.807 32.1563 30.5867V28.3568L31.9074 28.1271C31.6586 27.8975 31.6586 27.8975 29.2564 27.8783C27.9262 27.8687 26.749 27.8975 26.6438 27.9453ZM30.625 30.625V31.8691H29.1416H27.6582V30.625V29.3809H29.1416H30.625V30.625Z" fill="white"/>
<path d="M35.8887 27.974C35.4389 28.2037 35.4102 28.4047 35.4293 30.7398C35.458 32.8645 35.4676 32.9219 35.6781 33.1324C35.8887 33.343 35.9461 33.3525 38.1664 33.3812C40.6738 33.4195 40.9705 33.3908 41.248 33.0941C41.4299 32.9027 41.4395 32.7496 41.4395 30.6441C41.4395 29.3713 41.4012 28.3377 41.3438 28.2324C41.1715 27.907 40.7217 27.8496 38.3865 27.8496C36.7691 27.8496 36.0609 27.8879 35.8887 27.974ZM39.9082 30.625V31.8787L38.4535 31.85L36.9893 31.8213L36.9605 30.7303C36.951 30.1273 36.9605 29.5723 36.9797 29.5053C37.018 29.4096 37.3721 29.3809 38.4727 29.3809H39.9082V30.625Z" fill="white"/>
<path d="M7.98164 35.8312C7.81895 35.9078 7.65625 36.0322 7.61797 36.1279C7.58926 36.2141 7.56055 37.2859 7.56055 38.5109C7.56055 40.5973 7.57012 40.7504 7.75195 40.9418C8.02949 41.2385 8.32617 41.2672 10.8336 41.2289C13.0539 41.2002 13.1113 41.1906 13.3219 40.9801C13.542 40.7695 13.542 40.7312 13.542 38.4727C13.542 36.2141 13.542 36.1758 13.3219 35.9652C13.1113 35.7451 13.0635 35.7451 10.69 35.726C8.81426 35.7068 8.21133 35.726 7.98164 35.8312ZM12.0107 38.4727V39.6689L10.5561 39.6977L9.0918 39.7264V38.4727V37.2189L10.5561 37.2477L12.0107 37.2764V38.4727Z" fill="white"/>
<path d="M17.418 35.7643C17.3414 35.793 17.1787 35.9078 17.0639 36.0131C16.8438 36.2045 16.8438 36.2523 16.8438 38.4344C16.8438 40.6547 16.8438 40.6643 17.0734 40.9322L17.3031 41.2002H19.8584H22.4137L22.6434 40.9322C22.873 40.6643 22.873 40.6547 22.873 38.4727C22.873 36.3002 22.873 36.2811 22.6434 36.0131L22.4137 35.7451L19.9828 35.726C18.6525 35.7164 17.4945 35.7355 17.418 35.7643ZM21.3227 38.4439L21.2939 39.6689L19.8393 39.6977L18.375 39.7264V38.4727V37.2285H19.8584H21.3514L21.3227 38.4439Z" fill="white"/>
<path d="M26.6438 35.793C26.1557 35.9939 26.127 36.1566 26.127 38.4918C26.127 40.6451 26.127 40.6643 26.3566 40.9322L26.5863 41.2002H29.1416H31.6969L31.9266 40.9322C32.1563 40.6643 32.1563 40.6547 32.1563 38.4344V36.2045L31.9074 35.9748C31.6586 35.7451 31.6586 35.7451 29.2564 35.726C27.9262 35.7164 26.749 35.7451 26.6438 35.793ZM30.625 38.4727V39.7264L29.1703 39.6977L27.7061 39.6689L27.6773 38.4439L27.6486 37.2285H29.1416H30.625V38.4727Z" fill="white"/>
<path d="M35.9174 35.793C35.4293 35.9939 35.4006 36.1758 35.4293 38.5588C35.458 40.7025 35.4676 40.7695 35.6781 40.9801C35.8887 41.1906 35.9461 41.2002 38.1664 41.2289C40.6738 41.2672 40.9705 41.2385 41.248 40.9418C41.4299 40.7504 41.4395 40.5973 41.4395 38.4918C41.4395 37.2189 41.4012 36.1854 41.3437 36.0801C41.2959 35.9844 41.1141 35.86 40.9514 35.8025C40.5877 35.6781 36.2332 35.6686 35.9174 35.793ZM39.9082 38.4727V39.7264L38.4535 39.6977L36.9893 39.6689L36.9605 38.5779C36.951 37.975 36.9605 37.4199 36.9797 37.3529C37.018 37.2572 37.3721 37.2285 38.4727 37.2285H39.9082V38.4727Z" fill="white"/>
</svg>
